<mxfile host="app.diagrams.net" agent="Mozilla/5.0 (X11; Ubuntu; Linux x86_64; rv:134.0) Gecko/20100101 Firefox/134.0" version="26.0.7">
  <diagram name="Page-1" id="StVD8YDmDs_PsOroR3lb">
    <mxGraphModel dx="2098" dy="1223" grid="1" gridSize="10" guides="1" tooltips="1" connect="1" arrows="1" fold="1" page="1" pageScale="1" pageWidth="3300" pageHeight="4681" math="0" shadow="0">
      <root>
        <mxCell id="0" />
        <mxCell id="1" parent="0" />
        <mxCell id="j5Jw_RHchapldNc13J5k-5" style="edgeStyle=orthogonalEdgeStyle;rounded=0;orthogonalLoop=1;jettySize=auto;html=1;exitX=0.5;exitY=1;exitDx=0;exitDy=0;entryX=0.5;entryY=0;entryDx=0;entryDy=0;" parent="1" source="j5Jw_RHchapldNc13J5k-1" target="j5Jw_RHchapldNc13J5k-4" edge="1">
          <mxGeometry relative="1" as="geometry" />
        </mxCell>
        <mxCell id="j5Jw_RHchapldNc13J5k-1" value="کاربر گزینه جستجوی مطالب حقوقی را انتخاب میکند" style="rounded=1;whiteSpace=wrap;html=1;fillColor=#f5f5f5;gradientColor=#b3b3b3;strokeColor=#666666;" parent="1" vertex="1">
          <mxGeometry x="580" y="170" width="120" height="60" as="geometry" />
        </mxCell>
        <mxCell id="j5Jw_RHchapldNc13J5k-3" value="" style="ellipse;whiteSpace=wrap;html=1;aspect=fixed;fillColor=light-dark(#464a4e, #7d8c9b);strokeColor=#314354;fontColor=#ffffff;" parent="1" vertex="1">
          <mxGeometry x="815.0000000000001" width="50" height="50" as="geometry" />
        </mxCell>
        <mxCell id="j5Jw_RHchapldNc13J5k-7" style="edgeStyle=orthogonalEdgeStyle;rounded=0;orthogonalLoop=1;jettySize=auto;html=1;exitX=0.5;exitY=1;exitDx=0;exitDy=0;entryX=0.5;entryY=0;entryDx=0;entryDy=0;" parent="1" source="j5Jw_RHchapldNc13J5k-4" target="j5Jw_RHchapldNc13J5k-6" edge="1">
          <mxGeometry relative="1" as="geometry" />
        </mxCell>
        <mxCell id="j5Jw_RHchapldNc13J5k-4" value="گزینه های فیلترسازی برای کاربر ظاهر میشود" style="rounded=1;whiteSpace=wrap;html=1;fillColor=#f5f5f5;gradientColor=#b3b3b3;strokeColor=#666666;" parent="1" vertex="1">
          <mxGeometry x="580" y="280" width="120" height="60" as="geometry" />
        </mxCell>
        <mxCell id="j5Jw_RHchapldNc13J5k-8" style="edgeStyle=orthogonalEdgeStyle;rounded=0;orthogonalLoop=1;jettySize=auto;html=1;exitX=1;exitY=0.5;exitDx=0;exitDy=0;entryX=0.5;entryY=0;entryDx=0;entryDy=0;" parent="1" source="j5Jw_RHchapldNc13J5k-6" target="j5Jw_RHchapldNc13J5k-12" edge="1">
          <mxGeometry relative="1" as="geometry">
            <mxPoint x="840" y="405" as="targetPoint" />
            <Array as="points">
              <mxPoint x="758" y="405" />
              <mxPoint x="758" y="406" />
              <mxPoint x="840" y="406" />
            </Array>
          </mxGeometry>
        </mxCell>
        <mxCell id="j5Jw_RHchapldNc13J5k-9" value="اعمال فیلتر" style="edgeLabel;html=1;align=center;verticalAlign=middle;resizable=0;points=[];" parent="j5Jw_RHchapldNc13J5k-8" vertex="1" connectable="0">
          <mxGeometry x="-0.1541" relative="1" as="geometry">
            <mxPoint as="offset" />
          </mxGeometry>
        </mxCell>
        <mxCell id="j5Jw_RHchapldNc13J5k-30" style="edgeStyle=orthogonalEdgeStyle;rounded=0;orthogonalLoop=1;jettySize=auto;html=1;exitX=0;exitY=0.5;exitDx=0;exitDy=0;entryX=0.5;entryY=0;entryDx=0;entryDy=0;" parent="1" source="j5Jw_RHchapldNc13J5k-6" target="j5Jw_RHchapldNc13J5k-26" edge="1">
          <mxGeometry relative="1" as="geometry" />
        </mxCell>
        <mxCell id="j5Jw_RHchapldNc13J5k-31" value="عدم اعمال فیلتر" style="edgeLabel;html=1;align=center;verticalAlign=middle;resizable=0;points=[];" parent="j5Jw_RHchapldNc13J5k-30" vertex="1" connectable="0">
          <mxGeometry x="0.3535" relative="1" as="geometry">
            <mxPoint as="offset" />
          </mxGeometry>
        </mxCell>
        <mxCell id="j5Jw_RHchapldNc13J5k-6" value="" style="rhombus;whiteSpace=wrap;html=1;" parent="1" vertex="1">
          <mxGeometry x="605" y="380" width="70" height="50" as="geometry" />
        </mxCell>
        <mxCell id="j5Jw_RHchapldNc13J5k-14" style="edgeStyle=orthogonalEdgeStyle;rounded=0;orthogonalLoop=1;jettySize=auto;html=1;exitX=0.5;exitY=1;exitDx=0;exitDy=0;" parent="1" source="j5Jw_RHchapldNc13J5k-12" target="j5Jw_RHchapldNc13J5k-13" edge="1">
          <mxGeometry relative="1" as="geometry" />
        </mxCell>
        <mxCell id="j5Jw_RHchapldNc13J5k-12" value="کاربر فیلترهای مدنظر خود را اعمال میکند" style="rounded=1;whiteSpace=wrap;html=1;fillColor=#f5f5f5;gradientColor=#b3b3b3;strokeColor=#666666;" parent="1" vertex="1">
          <mxGeometry x="780" y="460" width="120" height="60" as="geometry" />
        </mxCell>
        <mxCell id="j5Jw_RHchapldNc13J5k-13" value="کاربر روی گزینه تایید برای اعمال فیلتر ها کلیک میکند" style="rounded=1;whiteSpace=wrap;html=1;fillColor=#f5f5f5;gradientColor=#b3b3b3;strokeColor=#666666;" parent="1" vertex="1">
          <mxGeometry x="780" y="590" width="120" height="60" as="geometry" />
        </mxCell>
        <mxCell id="j5Jw_RHchapldNc13J5k-17" style="edgeStyle=orthogonalEdgeStyle;rounded=0;orthogonalLoop=1;jettySize=auto;html=1;exitX=0.5;exitY=1;exitDx=0;exitDy=0;" parent="1" edge="1">
          <mxGeometry relative="1" as="geometry">
            <mxPoint x="839.84" y="700" as="targetPoint" />
            <mxPoint x="839.84" y="650" as="sourcePoint" />
          </mxGeometry>
        </mxCell>
        <mxCell id="j5Jw_RHchapldNc13J5k-20" style="edgeStyle=orthogonalEdgeStyle;rounded=0;orthogonalLoop=1;jettySize=auto;html=1;exitX=0.5;exitY=1;exitDx=0;exitDy=0;entryX=0.5;entryY=0;entryDx=0;entryDy=0;" parent="1" source="j5Jw_RHchapldNc13J5k-18" target="j5Jw_RHchapldNc13J5k-19" edge="1">
          <mxGeometry relative="1" as="geometry" />
        </mxCell>
        <mxCell id="j5Jw_RHchapldNc13J5k-18" value="کاربر روی گزینه تایید نهایی کلیک میکند" style="rounded=1;whiteSpace=wrap;html=1;fillColor=#f5f5f5;gradientColor=#b3b3b3;strokeColor=#666666;" parent="1" vertex="1">
          <mxGeometry x="780" y="700" width="120" height="60" as="geometry" />
        </mxCell>
        <mxCell id="j5Jw_RHchapldNc13J5k-33" style="edgeStyle=orthogonalEdgeStyle;rounded=0;orthogonalLoop=1;jettySize=auto;html=1;exitX=0.5;exitY=1;exitDx=0;exitDy=0;entryX=1;entryY=0.5;entryDx=0;entryDy=0;" parent="1" source="j5Jw_RHchapldNc13J5k-19" target="j5Jw_RHchapldNc13J5k-32" edge="1">
          <mxGeometry relative="1" as="geometry" />
        </mxCell>
        <mxCell id="j5Jw_RHchapldNc13J5k-19" value="مطالب حقوقی مورد نظر نمایش داده میشود" style="rounded=1;whiteSpace=wrap;html=1;fillColor=#f5f5f5;gradientColor=#b3b3b3;strokeColor=#666666;" parent="1" vertex="1">
          <mxGeometry x="780" y="790" width="120" height="60" as="geometry" />
        </mxCell>
        <mxCell id="j5Jw_RHchapldNc13J5k-25" style="edgeStyle=orthogonalEdgeStyle;rounded=0;orthogonalLoop=1;jettySize=auto;html=1;exitX=0.5;exitY=1;exitDx=0;exitDy=0;entryX=0.5;entryY=0;entryDx=0;entryDy=0;" parent="1" source="j5Jw_RHchapldNc13J5k-26" target="j5Jw_RHchapldNc13J5k-28" edge="1">
          <mxGeometry relative="1" as="geometry" />
        </mxCell>
        <mxCell id="j5Jw_RHchapldNc13J5k-26" value="کاربر روی گزینه تایید نهایی کلیک میکند" style="rounded=1;whiteSpace=wrap;html=1;fillColor=#f5f5f5;gradientColor=#b3b3b3;strokeColor=#666666;" parent="1" vertex="1">
          <mxGeometry x="484.99999999999994" y="490" width="120" height="60" as="geometry" />
        </mxCell>
        <mxCell id="j5Jw_RHchapldNc13J5k-34" style="edgeStyle=orthogonalEdgeStyle;rounded=0;orthogonalLoop=1;jettySize=auto;html=1;exitX=0.5;exitY=1;exitDx=0;exitDy=0;entryX=0;entryY=0.5;entryDx=0;entryDy=0;" parent="1" source="j5Jw_RHchapldNc13J5k-28" target="j5Jw_RHchapldNc13J5k-32" edge="1">
          <mxGeometry relative="1" as="geometry" />
        </mxCell>
        <mxCell id="j5Jw_RHchapldNc13J5k-28" value="مطالب حقوقی بصورت مرتب (الفبایی) نمایش داده میشوند" style="rounded=1;whiteSpace=wrap;html=1;fillColor=#f5f5f5;gradientColor=#b3b3b3;strokeColor=#666666;" parent="1" vertex="1">
          <mxGeometry x="484.99999999999994" y="580" width="120" height="60" as="geometry" />
        </mxCell>
        <mxCell id="j5Jw_RHchapldNc13J5k-32" value="" style="rhombus;whiteSpace=wrap;html=1;" parent="1" vertex="1">
          <mxGeometry x="630" y="900" width="70" height="50" as="geometry" />
        </mxCell>
        <mxCell id="cDfi0w5-gg0hz1yR9Fxr-1" value="" style="html=1;points=[];perimeter=orthogonalPerimeter;fillColor=strokeColor;direction=south;" vertex="1" parent="1">
          <mxGeometry x="550" y="90" width="565" height="5" as="geometry" />
        </mxCell>
        <mxCell id="cDfi0w5-gg0hz1yR9Fxr-2" style="edgeStyle=orthogonalEdgeStyle;rounded=0;orthogonalLoop=1;jettySize=auto;html=1;exitX=0.5;exitY=1;exitDx=0;exitDy=0;entryX=-0.2;entryY=0.481;entryDx=0;entryDy=0;entryPerimeter=0;" edge="1" parent="1" source="j5Jw_RHchapldNc13J5k-3" target="cDfi0w5-gg0hz1yR9Fxr-1">
          <mxGeometry relative="1" as="geometry" />
        </mxCell>
        <mxCell id="cDfi0w5-gg0hz1yR9Fxr-3" value="" style="endArrow=classic;html=1;rounded=0;exitX=0.6;exitY=0.837;exitDx=0;exitDy=0;exitPerimeter=0;entryX=0.5;entryY=0;entryDx=0;entryDy=0;" edge="1" parent="1" source="cDfi0w5-gg0hz1yR9Fxr-1" target="j5Jw_RHchapldNc13J5k-1">
          <mxGeometry width="50" height="50" relative="1" as="geometry">
            <mxPoint x="670" y="440" as="sourcePoint" />
            <mxPoint x="720" y="390" as="targetPoint" />
          </mxGeometry>
        </mxCell>
        <mxCell id="cDfi0w5-gg0hz1yR9Fxr-7" style="edgeStyle=orthogonalEdgeStyle;rounded=0;orthogonalLoop=1;jettySize=auto;html=1;exitX=0.5;exitY=1;exitDx=0;exitDy=0;" edge="1" parent="1" source="cDfi0w5-gg0hz1yR9Fxr-4" target="cDfi0w5-gg0hz1yR9Fxr-6">
          <mxGeometry relative="1" as="geometry" />
        </mxCell>
        <mxCell id="cDfi0w5-gg0hz1yR9Fxr-4" value="لیستی از مطالب حقوقی به کاربر نمایش داده میشود" style="rounded=1;whiteSpace=wrap;html=1;fillColor=#f5f5f5;gradientColor=#b3b3b3;strokeColor=#666666;" vertex="1" parent="1">
          <mxGeometry x="930" y="170" width="120" height="60" as="geometry" />
        </mxCell>
        <mxCell id="cDfi0w5-gg0hz1yR9Fxr-5" value="" style="endArrow=classic;html=1;rounded=0;exitX=0.8;exitY=0.205;exitDx=0;exitDy=0;exitPerimeter=0;" edge="1" parent="1" source="cDfi0w5-gg0hz1yR9Fxr-1">
          <mxGeometry width="50" height="50" relative="1" as="geometry">
            <mxPoint x="1020" y="440" as="sourcePoint" />
            <mxPoint x="999" y="170" as="targetPoint" />
          </mxGeometry>
        </mxCell>
        <mxCell id="cDfi0w5-gg0hz1yR9Fxr-9" style="edgeStyle=orthogonalEdgeStyle;rounded=0;orthogonalLoop=1;jettySize=auto;html=1;exitX=0.5;exitY=1;exitDx=0;exitDy=0;entryX=0.5;entryY=0;entryDx=0;entryDy=0;" edge="1" parent="1" source="cDfi0w5-gg0hz1yR9Fxr-6" target="cDfi0w5-gg0hz1yR9Fxr-8">
          <mxGeometry relative="1" as="geometry" />
        </mxCell>
        <mxCell id="cDfi0w5-gg0hz1yR9Fxr-6" value="کاربر گزینه موردنظر خود را انتخاب میکند" style="rounded=1;whiteSpace=wrap;html=1;fillColor=#f5f5f5;gradientColor=#b3b3b3;strokeColor=#666666;" vertex="1" parent="1">
          <mxGeometry x="930" y="290" width="120" height="60" as="geometry" />
        </mxCell>
        <mxCell id="cDfi0w5-gg0hz1yR9Fxr-8" value="مطلب حقوقی مورد نظر بصورت کامل به کاربر نمایش داده میشود" style="rounded=1;whiteSpace=wrap;html=1;fillColor=#f5f5f5;gradientColor=#b3b3b3;strokeColor=#666666;" vertex="1" parent="1">
          <mxGeometry x="930" y="410" width="120" height="60" as="geometry" />
        </mxCell>
        <mxCell id="cDfi0w5-gg0hz1yR9Fxr-10" value="" style="html=1;points=[];perimeter=orthogonalPerimeter;fillColor=strokeColor;direction=south;" vertex="1" parent="1">
          <mxGeometry x="630" y="1030" width="470" height="5" as="geometry" />
        </mxCell>
        <mxCell id="cDfi0w5-gg0hz1yR9Fxr-11" style="edgeStyle=orthogonalEdgeStyle;rounded=0;orthogonalLoop=1;jettySize=auto;html=1;exitX=0.5;exitY=1;exitDx=0;exitDy=0;entryX=-0.2;entryY=0.234;entryDx=0;entryDy=0;entryPerimeter=0;" edge="1" parent="1" source="cDfi0w5-gg0hz1yR9Fxr-8" target="cDfi0w5-gg0hz1yR9Fxr-10">
          <mxGeometry relative="1" as="geometry" />
        </mxCell>
        <mxCell id="cDfi0w5-gg0hz1yR9Fxr-12" style="edgeStyle=orthogonalEdgeStyle;rounded=0;orthogonalLoop=1;jettySize=auto;html=1;exitX=0.5;exitY=1;exitDx=0;exitDy=0;entryX=-0.2;entryY=0.926;entryDx=0;entryDy=0;entryPerimeter=0;" edge="1" parent="1" source="j5Jw_RHchapldNc13J5k-32" target="cDfi0w5-gg0hz1yR9Fxr-10">
          <mxGeometry relative="1" as="geometry" />
        </mxCell>
        <mxCell id="cDfi0w5-gg0hz1yR9Fxr-13" value="" style="ellipse;whiteSpace=wrap;html=1;aspect=fixed;" vertex="1" parent="1">
          <mxGeometry x="810" y="1110" width="60" height="60" as="geometry" />
        </mxCell>
        <mxCell id="cDfi0w5-gg0hz1yR9Fxr-14" value="" style="ellipse;whiteSpace=wrap;html=1;aspect=fixed;fillColor=#647687;fontColor=#ffffff;strokeColor=#314354;" vertex="1" parent="1">
          <mxGeometry x="820" y="1120" width="40" height="40" as="geometry" />
        </mxCell>
        <mxCell id="cDfi0w5-gg0hz1yR9Fxr-15" value="" style="endArrow=classic;html=1;rounded=0;exitX=0.8;exitY=0.551;exitDx=0;exitDy=0;exitPerimeter=0;entryX=0.5;entryY=0;entryDx=0;entryDy=0;" edge="1" parent="1" source="cDfi0w5-gg0hz1yR9Fxr-10" target="cDfi0w5-gg0hz1yR9Fxr-13">
          <mxGeometry width="50" height="50" relative="1" as="geometry">
            <mxPoint x="1020" y="1020" as="sourcePoint" />
            <mxPoint x="1070" y="970" as="targetPoint" />
          </mxGeometry>
        </mxCell>
      </root>
    </mxGraphModel>
  </diagram>
</mxfile>
